<svg xmlns="http://www.w3.org/2000/svg" viewBox="0 0 1200 630" width="1200" height="630" role="img" aria-labelledby="t">
  <title id="t">WireHub</title>
  <defs>
    <linearGradient id="bg" x1="0" y1="0" x2="1" y2="1">
      <stop offset="0" stop-color="#16304f"/>
      <stop offset="1" stop-color="#0f2238"/>
    </linearGradient>
  </defs>
  <rect width="1200" height="630" fill="url(#bg)"/>
  <!-- a quiet harness: three conductors running from the logo to a terminal block; no text, so the card renders the same on any machine -->
  <g fill="none" stroke-width="4" stroke-linecap="round" opacity="0.55">
    <path d="M150 470 H300 C380 470 400 520 500 520 H1010" stroke="#c9d6e6"/>
    <path d="M150 500 H1010" stroke="#8fb3e0"/>
    <path d="M150 530 H300 C380 530 400 480 500 480 H1010" stroke="#e39256"/>
  </g>
  <g fill="#e39256" opacity="0.9">
    <circle cx="150" cy="470" r="8"/><circle cx="150" cy="500" r="8"/><circle cx="150" cy="530" r="8"/>
  </g>
  <rect x="1010" y="455" width="48" height="90" rx="9" fill="none" stroke="#c9d6e6" stroke-width="4" opacity="0.55"/>
  <g transform="translate(150 150) scale(2.9)">
    <g fill="none" stroke-width="9" stroke-linecap="round" stroke-linejoin="round">
      <path stroke="#e8edf3" d="M0 14 L10 70 L21 30 L32 70 L42 14 M55 36 V70 M70 36 V70 M70 50 C70 40 77 34 88 35 M98 52 H134 C134 41 126 34 116 34 C105 34 98 42 98 52 C98 63 105 70 116 70 C124 70 130 66 133 61"/>
      <rect fill="#2e5e99" x="146" y="-2" width="160" height="88" rx="20" stroke="none"/>
      <path stroke="#ffffff" d="M164 14 V70 M196 14 V70 M164 42 H196 M213 36 V55 C213 64 219 70 227 70 C236 70 242 64 242 55 M242 36 V70 M258 14 V70 M258 52 C258 41 266 34 276 34 C286 34 293 42 293 52 C293 62 286 70 276 70 C266 70 258 63 258 52"/>
    </g>
    <circle fill="#e39256" cx="55" cy="18" r="6"/>
  </g>
</svg>
